# xmcd
#
# Track frame offsets: 
#        150
#        11368
#        24118
#        41143
#        54618
#        72368
#        95398
#        117203
#        139518
#        153350
#        169293
#        183813
#        195543
#        216055
#        229208
#        243978
#
# Disc length: 3394 seconds
#
# Revision: 5
# Processed by: cddbd v1.5.2PL0 Copyright (c) Steve Scherf et al.
# Submitted via: ExactAudioCopyFreeDBPlugin 1.0
#
DISCID=cd0d4010
DTITLE=Various Artist - Blues Giants in concert
DYEAR=2006
DGENRE=Blues
TTITLE0=Memphis Slim - Blues everywhere
TTITLE1=Memphis Slim and Willie Dixon - John Henry
TTITLE2=Muddy Waters - Captain Captain
TTITLE3=Muddy Waters - Catfish Blues
TTITLE4=Muddy Waters - In the City
TTITLE5=Muddy Waters - I feel like cryin'
TTITLE6=Sonny Boy Williamson - Your Love for me is true
TTITLE7=Sonny Boy Williamson - Don't misuse me
TTITLE8=Sonny Boy Williamson - I'm gettin' tired
TTITLE9=Otis Spann - Going down slow (had my fun)
TTITLE10=Lonnie Johnson - Careless Love
TTITLE11=Lonnie Johnson - C.C. Rider
TTITLE12=Victoria Spivey - T.B. Blues
TTITLE13=Big Joe Williams - Big roll Blues
TTITLE14=Big Joe Williams - Back in the Bottom
TTITLE15=Big Joe Williams - Baby please don't go
EXTD=YEAR: 2004
EXTT0=
EXTT1=
EXTT2=
EXTT3=
EXTT4=
EXTT5=
EXTT6=
EXTT7=
EXTT8=
EXTT9=
EXTT10=
EXTT11=
EXTT12=
EXTT13=
EXTT14=
EXTT15=
PLAYORDER=
